<svg width="16" height="16" viewBox="0 0 16 16" fill="none" xmlns="http://www.w3.org/2000/svg">
<path d="M14.1967 6.64914H9.23934V1.69177C9.23934 1.00764 8.68534 0.452393 7.99997 0.452393C7.31459 0.452393 6.76059 1.00764 6.76059 1.69177V6.64914H1.80322C1.11784 6.64914 0.563843 7.20439 0.563843 7.88852C0.563843 8.57264 1.11784 9.12789 1.80322 9.12789H6.76059V14.0853C6.76059 14.7694 7.31459 15.3246 7.99997 15.3246C8.68534 15.3246 9.23934 14.7694 9.23934 14.0853V9.12789H14.1967C14.8821 9.12789 15.4361 8.57264 15.4361 7.88852C15.4361 7.20439 14.8821 6.64914 14.1967 6.64914Z" fill="#707070"/>
</svg>
